<svg xmlns="http://www.w3.org/2000/svg" width="144.751" height="144.745"><g fill="#41c483" stroke-width="22.144"><path d="M72.375 1.01c-2.474 0-4.903.1-7.312.345v142.03c2.41.247 4.838.345 7.312.345s4.934-.098 7.344-.344V1.356c-2.41-.247-4.87-.345-7.345-.345z"/><path d="M117.406 16.98L17 117.386c3.09 3.797 6.547 7.285 10.344 10.375L127.78 27.356c-3.09-3.8-6.575-7.284-10.374-10.375z"/><path d="M1.375 65.042C1.13 67.452 1 69.912 1 72.386s.13 4.903.375 7.312h142c.246-2.41.375-4.838.375-7.312s-.13-4.935-.375-7.344h-142z"/><path d="M27.344 16.98C23.547 20.07 20.09 23.558 17 27.355L117.406 127.76c3.8-3.09 7.284-6.576 10.375-10.374L27.345 16.98z"/></g></svg>